<svg xmlns="http://www.w3.org/2000/svg" width="1400" height="900" viewBox="0 0 1400 900">
  <rect width="1400" height="900" fill="#f5f7fc"/>
  <rect x="0" y="0" width="245" height="900" fill="#4b1fa4"/>
  <text x="28" y="74" font-family="Pretendard, Arial, sans-serif" font-size="56" fill="#ffffff" font-weight="700">Kimmy Kim</text>
  <rect x="20" y="130" width="205" height="60" rx="12" fill="#ffffff" opacity="0.18"/>
  <text x="44" y="168" font-family="Pretendard, Arial, sans-serif" font-size="28" fill="#f3e8ff" font-weight="600">Overview</text>
  <text x="42" y="230" font-family="Pretendard, Arial, sans-serif" font-size="28" fill="#f3e8ff">Projects</text>
  <text x="42" y="290" font-family="Pretendard, Arial, sans-serif" font-size="28" fill="#ffffff" font-weight="700">Research</text>
  <text x="42" y="350" font-family="Pretendard, Arial, sans-serif" font-size="28" fill="#f3e8ff">Community</text>
  <text x="42" y="410" font-family="Pretendard, Arial, sans-serif" font-size="28" fill="#f3e8ff">Certifications</text>

  <text x="292" y="74" font-family="Pretendard, Arial, sans-serif" font-size="34" fill="#181f2d" font-weight="700">Research Experience</text>
  <rect x="1160" y="30" width="98" height="34" rx="17" fill="#ede9fe"/>
  <text x="1184" y="53" font-family="Pretendard, Arial, sans-serif" font-size="16" fill="#5b21b6" font-weight="600">LinkedIn</text>
  <rect x="1268" y="30" width="112" height="34" rx="17" fill="#ede9fe"/>
  <text x="1290" y="53" font-family="Pretendard, Arial, sans-serif" font-size="16" fill="#5b21b6" font-weight="600">CV</text>

  <rect x="285" y="92" width="1085" height="510" rx="20" fill="#ffffff" stroke="#e4e9f5"/>
  <text x="315" y="138" font-family="Pretendard, Arial, sans-serif" font-size="33" fill="#1d2434" font-weight="700">AI-Driven Learning Analytics System</text>
  <rect x="930" y="112" width="110" height="30" rx="15" fill="#e7faf0"/>
  <text x="954" y="133" font-family="Pretendard, Arial, sans-serif" font-size="15" fill="#0f8a57" font-weight="700">In Progress</text>
  <text x="315" y="174" font-family="Pretendard, Arial, sans-serif" font-size="18" fill="#6b7383">Capstone · Learning Analytics · GenAI · Visualization</text>

  <circle cx="325" cy="222" r="4" fill="#636a78"/>
  <text x="340" y="228" font-family="Pretendard, Arial, sans-serif" font-size="21" fill="#303746">Built workflow from interest detection to generated learning plans.</text>
  <circle cx="325" cy="264" r="4" fill="#636a78"/>
  <text x="340" y="270" font-family="Pretendard, Arial, sans-serif" font-size="21" fill="#303746">Produced structured outputs for engagement analysis and behavior tracking.</text>
  <circle cx="325" cy="306" r="4" fill="#636a78"/>
  <text x="340" y="312" font-family="Pretendard, Arial, sans-serif" font-size="21" fill="#303746">Designed modular prompts with reusable Python orchestration.</text>

  <rect x="315" y="336" width="560" height="236" rx="16" fill="#e9edf7" stroke="#dce3f2"/>
  <rect x="335" y="356" width="520" height="186" rx="12" fill="#000000"/>
  <polygon points="565,424 565,474 610,449" fill="#ffffff" opacity="0.9"/>
  <rect x="895" y="336" width="455" height="236" rx="16" fill="#f7f8fc" stroke="#e4e9f5"/>
  <text x="920" y="376" font-family="Pretendard, Arial, sans-serif" font-size="26" fill="#1f2738" font-weight="700">Watch Demo</text>
  <text x="920" y="414" font-family="Pretendard, Arial, sans-serif" font-size="19" fill="#4a5364">Preview of the end-to-end learning orchestration</text>
  <text x="920" y="445" font-family="Pretendard, Arial, sans-serif" font-size="19" fill="#4a5364">from user intent to adaptive quiz outputs.</text>
  <rect x="920" y="470" width="170" height="42" rx="21" fill="#5b21b6"/>
  <text x="952" y="498" font-family="Pretendard, Arial, sans-serif" font-size="20" fill="#ffffff" font-weight="600">Play Demo</text>

  <rect x="285" y="624" width="530" height="240" rx="20" fill="#ffffff" stroke="#e4e9f5"/>
  <text x="318" y="676" font-family="Pretendard, Arial, sans-serif" font-size="29" fill="#1d2434" font-weight="700">Research Output</text>
  <text x="318" y="714" font-family="Pretendard, Arial, sans-serif" font-size="20" fill="#4a5364">Teen mental health and participatory design work</text>
  <rect x="318" y="742" width="175" height="38" rx="19" fill="#ede9fe"/>
  <text x="352" y="767" font-family="Pretendard, Arial, sans-serif" font-size="18" fill="#5b21b6" font-weight="600">Paper / Summary</text>

  <rect x="840" y="624" width="530" height="240" rx="20" fill="#ffffff" stroke="#e4e9f5"/>
  <text x="873" y="676" font-family="Pretendard, Arial, sans-serif" font-size="29" fill="#1d2434" font-weight="700">Methods & Impact</text>
  <text x="873" y="714" font-family="Pretendard, Arial, sans-serif" font-size="20" fill="#4a5364">Evidence synthesis and stakeholder-ready insights.</text>
  <text x="873" y="746" font-family="Pretendard, Arial, sans-serif" font-size="20" fill="#4a5364">Clearer communication for decisions.</text>

  <text x="286" y="888" font-family="Pretendard, Arial, sans-serif" font-size="15" fill="#8a92a1">Mockup: Research redesign with smaller, balanced video block</text>
</svg>
